<svg id="图层_1" data-name="图层 1" xmlns="http://www.w3.org/2000/svg" viewBox="0 0 200 200"><title>人物插画01</title><path d="M29.38,175h140V64.38s-2.92-61-71-61S29.79,65.83,29.79,65.83Z" style="fill:#fff385"/><path d="M81.67,135.21h38.75l4.38,18.33,11.67,2.71s-1.67,18.33-34,16.25-39.58-14.79-39.58-14.79L75.83,154Z" style="fill:#ffece3"/><path d="M39.26,163.44c-9.33,10.89-11.2,33.38-11.2,33.38H171.8s2.18-19.38-10.27-31.51c-6.13-6-15.29-8.49-23-9.49,0,0-13.24,12.13-35.64,12.13-26.37,0-41.77-11.43-41.77-11.43A21.4,21.4,0,0,0,39.26,163.44Z" style="fill:#ce66ff"/><path d="M49.17,46.46a67,67,0,0,0,32.5-1c17.92-5,19.38-7.29,19.38-7.29a49.06,49.06,0,0,0,26,10c15.83,1.25,23.75-2.71,23.75-2.71l1.25,23.33,1.25,28.75-.42,14.17s.42,6.25-7.5,13.75-12.5,7.92-12.5,7.92H70s-11.67-.42-16.67-7.92-6.25-13.33-6.25-13.33l.83-13.75-.42-27.5Z" style="fill:#ffece3"/><path d="M100,100c6.94,0,16.39-3.06,18.06.83s-6.11,12.5-17.78,12.5-23.14-9.54-18.06-14.17C85.28,96.39,100,100,100,100Z" style="fill:#ec7094"/><circle cx="142.56" cy="102.78" r="9.17" style="fill:#ec7094"/><circle cx="57.44" cy="102.78" r="9.17" style="fill:#ec7094"/><path d="M111.11,67.41A9.06,9.06,0,0,1,116.49,66a9.19,9.19,0,0,1,5.41,1.44,2.5,2.5,0,0,0,3.17-3.86A13.74,13.74,0,0,0,116.49,61c-5.34,0-8.26,2.32-8.57,2.59a2.48,2.48,0,0,0-.31,3.48A2.51,2.51,0,0,0,111.11,67.41Z" style="fill:#4c4497"/><path d="M74.61,67a2.51,2.51,0,0,0,3.5.37A9.06,9.06,0,0,1,83.49,66a9.18,9.18,0,0,1,5.41,1.44,2.5,2.5,0,0,0,3.17-3.86A13.74,13.74,0,0,0,83.49,61c-5.34,0-8.26,2.32-8.57,2.59A2.48,2.48,0,0,0,74.61,67Z" style="fill:#4c4497"/><circle cx="83.89" cy="82.05" r="6.63" style="fill:#4c4497"/><circle cx="116.11" cy="82.05" r="6.63" style="fill:#4c4497"/><path d="M173.39,180.84c0-.11,0-.21-.06-.32V68.33A68.41,68.41,0,0,0,105,0H95A68.41,68.41,0,0,0,26.67,68.33V180.52c0,.11,0,.21-.06.32l-2,15.39A3.33,3.33,0,0,0,27.49,200l.43,0a3.33,3.33,0,0,0,3.3-2.9l2-15.39c0-.16.08-.3.1-.45h0v-.06a23.86,23.86,0,0,1,21.19-20.25l10.14-1c9.45,6,22.1,9.44,35.33,9.44,2.33,0,4.66-.1,6.93-.31a1.67,1.67,0,1,0-.3-3.32c-2.17.2-4.4.29-6.63.29a66,66,0,0,1-29.72-6.73,12,12,0,0,0,9.95-9.41L82.68,138h34.64l2.46,11.84a12,12,0,0,0,10,9.42A54.79,54.79,0,0,1,123,162.2a1.67,1.67,0,0,0,1.11,3.14,55.25,55.25,0,0,0,11.23-5.44l10.12,1a23.86,23.86,0,0,1,21.19,20.25v.06h0c0,.15.08.3.1.45l2,15.39a3.33,3.33,0,0,0,3.3,2.9l.43,0a3.33,3.33,0,0,0,2.88-3.73ZM99.78,42.51c3.27,2.73,10.17,7,23.5,9.72,11,2.28,19,1.39,23.56.31L149,108.68a21.83,21.83,0,0,1-21.82,22.67H72.82A21.83,21.83,0,0,1,51,108.68l2.17-56.55A67.86,67.86,0,0,0,77.95,52,54.75,54.75,0,0,0,99.78,42.51Zm46.38,111.8L131,152.74a5.33,5.33,0,0,1-4.68-4.23L124.13,138h3.05a28.5,28.5,0,0,0,28.48-29.59l-2.33-60.53a3.35,3.35,0,0,0-4.8-2.87c-.08,0-8.37,3.89-23.9.67-17.17-3.56-21.89-9.57-21.9-9.57a3.29,3.29,0,0,0-1.07-1V16.77a1.67,1.67,0,0,0-3.33,0V35.22a3.34,3.34,0,0,0-.64.39c-.07.07-7.71,7.2-21.06,9.87a61.17,61.17,0,0,1-25.72-.67,3.34,3.34,0,0,0-4.24,3.08l-2.33,60.53A28.5,28.5,0,0,0,72.82,138h3.05L73.7,148.51A5.32,5.32,0,0,1,69,152.74l-15.18,1.57a30.53,30.53,0,0,0-20.5,11v-97A61.74,61.74,0,0,1,95,6.67h3.33v2.6a1.67,1.67,0,0,0,3.33,0V6.67H105a61.74,61.74,0,0,1,61.67,61.67v97A30.53,30.53,0,0,0,146.16,154.31Z" style="fill:#4c4497"/><path d="M116.69,164.07q-1.1.26-2.22.49a1.67,1.67,0,0,0,.67,3.27c.78-.16,1.56-.34,2.33-.52a1.67,1.67,0,1,0-.77-3.24Z" style="fill:#4c4497"/><path d="M82.46,97.8A5.2,5.2,0,0,0,79.81,104c1.33,5.25,9.24,10.7,20.19,10.72h.11c10.88,0,18.76-5.47,20.09-10.71a5.2,5.2,0,0,0-2.66-6.15h0c-1.9-1-4.91-.51-8.1,0-.9.16-1.81.31-2.68.43a56.36,56.36,0,0,1-6.76.51,56.69,56.69,0,0,1-6.76-.5c-.87-.12-1.78-.27-2.68-.43C87.38,97.29,84.37,96.77,82.46,97.8ZM100,102.1a60,60,0,0,0,7.2-.54c.91-.12,1.86-.28,2.8-.45,2.13-.36,5-.87,5.94-.38a1.9,1.9,0,0,1,1,2.4c-.83,3.29-6.77,8.16-16.89,8.2H100c-10.14,0-16.1-4.9-16.94-8.2a1.9,1.9,0,0,1,1-2.4,2.83,2.83,0,0,1,1.25-.2,32.4,32.4,0,0,1,4.69.58c.94.16,1.89.33,2.8.45A60.34,60.34,0,0,0,100,102.1Z" style="fill:#4c4497"/></svg>