<svg id="图层_1" data-name="图层 1" xmlns="http://www.w3.org/2000/svg" viewBox="0 0 200 200"><title>人物插画01</title><path d="M47.71,67.29l7.5-3.54,1.46-9.58s8.12-16.67,12.92-17.5S89.17,49.17,99.37,49,122.5,36.67,129,37.08s15,16.67,15,16.67l1.67,11.88,6.25,1.25,2.29-22.29s.21-19.38-14.79-30.21S116.46,3.75,116.46,3.75H82.08S66,4.38,57.5,15.83s-11,26.25-11,26.25Z" style="fill:#ce66ff"/><path d="M56.11,53.89S61.38,39.05,70.62,37.5c8.48-1.43,20.48,10.42,31.25,10.42,9.83,0,19-12.06,26.46-10.83,9.58,1.58,16.11,16.53,16.11,16.53l.83,12.78s10.83-.83,13.33,9.72-6.94,16.94-13.33,18.06c0,0-7.22,42.22-44.44,42.22S54.72,94.44,54.72,94.44,38.89,90.83,39.44,78.61,54.72,65.83,54.72,65.83Z" style="fill:#ffece3"/><path d="M86.67,136h26l5.83,18.13,16,2.5v9.17s-11.88,5.83-34.38,6.88-38.12-14.17-38.12-14.17l20.62-3.75Z" style="fill:#ffece3"/><circle cx="133.89" cy="102.78" r="9.17" style="fill:#ec7094"/><circle cx="66.11" cy="102.78" r="9.17" style="fill:#ec7094"/><path d="M45.28,163.89c-8.33,9.72-10,32.78-10,32.78H163.61s1.94-20.28-9.17-31.11c-5.48-5.34-13.65-7.58-20.54-8.47,0,0-11.82,10.83-31.82,10.83-23.54,0-37.29-10.21-37.29-10.21A19.1,19.1,0,0,0,45.28,163.89Z" style="fill:#5bf499"/><path d="M122.77,65,111,64a2.53,2.53,0,0,0-2.7,2.28,2.49,2.49,0,0,0,2.28,2.7l11.78,1h.21a2.5,2.5,0,0,0,.21-5Z" style="fill:#4c4497"/><path d="M77.65,69.95l11.78-1A2.5,2.5,0,1,0,89,64L77.23,65a2.5,2.5,0,0,0,.21,5Z" style="fill:#4c4497"/><circle cx="83.89" cy="84.05" r="6.63" style="fill:#4c4497"/><circle cx="116.11" cy="84.05" r="6.63" style="fill:#4c4497"/><path d="M166.05,180.84a30.53,30.53,0,0,0-27.23-26.53l-15.18-1.57a5.32,5.32,0,0,1-4.68-4.23L116.57,137a47.59,47.59,0,0,0,30.73-40A17.26,17.26,0,0,0,161,80a17.09,17.09,0,0,0-4.29-11.26l1-19.2A47.23,47.23,0,0,0,110.54,0H89.46A47.23,47.23,0,0,0,42.29,49.57l1,19.2A17.09,17.09,0,0,0,39,80,17.26,17.26,0,0,0,52.69,96.91a47.59,47.59,0,0,0,30.73,40L81,148.51a5.32,5.32,0,0,1-4.68,4.23l-15.18,1.57a30.53,30.53,0,0,0-27.22,26.53l-2,15.39A3.33,3.33,0,0,0,34.82,200l.43,0a3.33,3.33,0,0,0,3.3-2.9l2-15.39a23.89,23.89,0,0,1,21.3-20.76l3.8-.39c9.33,5.61,21.58,8.78,34.35,8.78,2.33,0,4.66-.1,6.93-.31a1.67,1.67,0,0,0,1.51-1.81,1.69,1.69,0,0,0-1.81-1.51c-2.17.2-4.4.29-6.63.29a66.84,66.84,0,0,1-28.45-6.06l5.49-.57a12,12,0,0,0,10.52-9.51l2.28-11a46.64,46.64,0,0,0,20.32,0l2.28,11A12,12,0,0,0,123,159.38l5.45.56a55.65,55.65,0,0,1-5.4,2.26,1.67,1.67,0,0,0,.56,3.24,1.65,1.65,0,0,0,.56-.09,56.26,56.26,0,0,0,10.23-4.79l3.79.39a23.89,23.89,0,0,1,21.31,20.76l2,15.39a3.33,3.33,0,0,0,3.3,2.9l.43,0a3.33,3.33,0,0,0,2.87-3.73ZM147.53,89.89v-10l.81.44a1.66,1.66,0,0,0,2.26-.66,1.66,1.66,0,0,0-.66-2.26l-2.41-1.31V70.18a10.52,10.52,0,0,1,0,19.72ZM60.08,19.27A40.2,40.2,0,0,1,89.46,6.67h21.07a40.57,40.57,0,0,1,40.51,42.57l-.74,14.85a17.11,17.11,0,0,0-2.78-.86v-4a24.65,24.65,0,0,0-4.17-13.75l-4.65-7a12.66,12.66,0,0,0-17.31-3.58l-11.85,7.66a17.6,17.6,0,0,1-19.09,0L78.61,34.9a12.65,12.65,0,0,0-17.31,3.58l-4.65,7a24.65,24.65,0,0,0-4.17,13.75v4a17.09,17.09,0,0,0-2.78.86l-.74-14.85A40.19,40.19,0,0,1,60.08,19.27ZM45.62,80a10.56,10.56,0,0,1,6.85-9.86v5.95l-2.41,1.31a1.67,1.67,0,0,0,.8,3.13,1.64,1.64,0,0,0,.8-.21l.81-.44v10A10.56,10.56,0,0,1,45.62,80ZM59.13,92.47V59.18a18,18,0,0,1,3-10l4.65-7a6,6,0,0,1,5-2.63,5.88,5.88,0,0,1,3.2.94l11.85,7.66a24.29,24.29,0,0,0,26.33,0L125,40.49a6,6,0,0,1,8.15,1.68l4.65,7a18,18,0,0,1,3,10V92.47a40.87,40.87,0,0,1-81.73,0Z" style="fill:#4c4497"/><path d="M116.69,164.07c-.73.18-1.47.34-2.21.49a1.67,1.67,0,0,0,.66,3.27c.78-.16,1.56-.34,2.32-.52a1.67,1.67,0,1,0-.77-3.24Z" style="fill:#4c4497"/><path d="M100,98.78A10.86,10.86,0,0,0,89,109.5a1.67,1.67,0,1,0,3.33,0,7.64,7.64,0,0,1,15.28,0,1.67,1.67,0,1,0,3.33,0A10.86,10.86,0,0,0,100,98.78Z" style="fill:#4c4497"/></svg>