<svg id="图层_1" data-name="图层 1" xmlns="http://www.w3.org/2000/svg" viewBox="0 0 200 200"><title>人物插画01</title><path d="M46.67,93.33H152.92s-1.25,18.75-5.83,27.92-7.92,14.58-7.92,14.58H61.25A47.64,47.64,0,0,1,50,114.17,147.05,147.05,0,0,1,46.67,93.33Z" style="fill:#fff385"/><path d="M86.67,136h26l5.83,18.13,16,2.5v9.17s-11.88,5.83-34.38,6.88-38.12-14.17-38.12-14.17l20.62-3.75Z" style="fill:#ffece3"/><path d="M45.28,163.89c-8.33,9.72-10,32.78-10,32.78H163.61s1.94-20.28-9.17-31.11c-5.48-5.34-13.65-7.58-20.54-8.47,0,0-11.82,10.83-31.82,10.83-23.54,0-37.29-10.21-37.29-10.21A19.1,19.1,0,0,0,45.28,163.89Z" style="fill:#6c9dff"/><path d="M148.19,69a11.12,11.12,0,0,0-3.19.52V65s-12.5-8.33-43.06-8.33-44.86,7.67-44.86,7.67l-.16,5.14a11.24,11.24,0,1,0-.2,20.34l-.06,6s4.58,41.67,44.58,41.67c31.67,0,43.75-39.17,43.75-39.17V91a11.12,11.12,0,0,0,3.19.52,11.25,11.25,0,0,0,0-22.5Z" style="fill:#ffece3"/><circle cx="133.89" cy="102.78" r="9.17" style="fill:#ec7094"/><circle cx="66.11" cy="102.78" r="9.17" style="fill:#ec7094"/><path d="M51.11,60.28l4.17-26.67S63.89,6.39,101.67,6.39s45,31.11,45,31.11l2.78,25s3.33,11.94,1.39,16.11-3.89,4.44-3.89,4.44S133.61,70,98.33,70,56.39,81.39,56.39,81.39s-2.5,3.89-6.11-1.11S51.11,60.28,51.11,60.28Z" style="fill:#ce66ff"/><path d="M166.05,180.84a30.53,30.53,0,0,0-27.23-26.53l-15.18-1.57a5.35,5.35,0,0,1-4.7-4.32l-1.79-7.59h15.58a16.52,16.52,0,0,0,14.2-8.26c10.52-18.11,9.33-37.8,9.27-38.63,0-.08,0-.14-.06-.21a17.11,17.11,0,0,0-2.51-29l-.34-2.52-.14,0L151.25,45.8A48,48,0,0,0,106.73,3.48a8.25,8.25,0,0,0-13.46,0A48,48,0,0,0,48.75,45.81L46.84,62.23l-.14,0-.34,2.52a17.11,17.11,0,0,0-2.51,29c0,.07-.05.13-.06.21-.06.83-1.25,20.52,9.27,38.64a16.52,16.52,0,0,0,14.2,8.26H82.84L81,148.51a5.32,5.32,0,0,1-4.68,4.23l-15.18,1.57a30.53,30.53,0,0,0-27.22,26.53l-2,15.39A3.33,3.33,0,0,0,34.82,200l.43,0a3.33,3.33,0,0,0,3.3-2.9l2-15.39a23.89,23.89,0,0,1,21.3-20.76l3.8-.39c9.33,5.61,21.58,8.78,34.35,8.78,2.33,0,4.66-.1,6.93-.31a1.67,1.67,0,1,0-.3-3.32c-2.17.2-4.4.29-6.63.29a66.84,66.84,0,0,1-28.45-6.06l5.49-.57A11.94,11.94,0,0,0,87.54,150l2.59-11a47.12,47.12,0,0,0,19.74,0l2.57,10.91A12,12,0,0,0,123,159.38l5.45.56a55.65,55.65,0,0,1-5.4,2.26,1.67,1.67,0,0,0,.56,3.24,1.65,1.65,0,0,0,.56-.09,56.26,56.26,0,0,0,10.23-4.79l3.79.39a23.89,23.89,0,0,1,21.31,20.76l2,15.39a3.33,3.33,0,0,0,3.3,2.9l.43,0a3.33,3.33,0,0,0,2.87-3.73Zm-24.87-51.62a9.83,9.83,0,0,1-8.44,4.94h-10a47.6,47.6,0,0,0,24.51-37,17.32,17.32,0,0,0,2.31-.3C149.56,102.32,148.66,116.35,141.18,129.23Zm-86.87-51a1.91,1.91,0,0,1-2.8-1.94l1.44-10.51c2.23-1.71,13.24-8.5,47.05-8.5,33.43,0,44.7,6.78,47.06,8.53l1.43,10.48a1.91,1.91,0,0,1-2.8,1.94A96.64,96.64,0,0,0,100,67,96.6,96.6,0,0,0,54.31,78.18ZM156.38,80a10.56,10.56,0,0,1-8.85,10.4V85a8.54,8.54,0,0,0,7.57-9.68l-.05-.4A10.52,10.52,0,0,1,156.38,80Zm-101-33.46A41.37,41.37,0,0,1,96.46,10h7.08a41.37,41.37,0,0,1,41.09,36.58l1.27,10.88c-7-3.16-20.6-6.89-45.9-6.89s-38.91,3.74-45.9,6.89ZM45,74.92l-.06.41A8.47,8.47,0,0,0,52.47,85v5.45A10.51,10.51,0,0,1,45,74.92Zm13.86,54.31c-7.45-12.83-8.37-26.89-8.42-32.41a17.33,17.33,0,0,0,2.3.3,47.6,47.6,0,0,0,24.51,37h-10A9.84,9.84,0,0,1,58.82,129.23Zm.32-36.76V83.21A90,90,0,0,1,100,73.71a90,90,0,0,1,40.87,9.51v9.25a40.87,40.87,0,0,1-81.73,0Z" style="fill:#4c4497"/><path d="M116.69,164.07c-.73.18-1.47.34-2.21.49a1.67,1.67,0,0,0,.66,3.27c.78-.16,1.56-.34,2.32-.52a1.67,1.67,0,0,0,1.23-2A1.65,1.65,0,0,0,116.69,164.07Z" style="fill:#4c4497"/><path d="M117.32,80.26a13,13,0,0,0-8,2.39,1.67,1.67,0,0,0,2.13,2.56,11.59,11.59,0,0,1,11.83,0,1.67,1.67,0,0,0,2.12-2.57A13.06,13.06,0,0,0,117.32,80.26Z" style="fill:#4c4497"/><circle cx="84.28" cy="82.93" r="6.63" style="fill:#4c4497"/><path d="M109.31,100.45a1.67,1.67,0,0,0-1.67,1.67,7.64,7.64,0,0,1-15.28,0,1.67,1.67,0,1,0-3.33,0,11,11,0,0,0,21.95,0A1.67,1.67,0,0,0,109.31,100.45Z" style="fill:#4c4497"/></svg>