<svg id="图层_1" data-name="图层 1" xmlns="http://www.w3.org/2000/svg" viewBox="0 0 200 200"><title>人物插画01</title><path d="M55.29,54.2s13.61,1.39,25.27-1.67,25.83-11.11,25.83-11.11,8.05,6.67,17.5,9.16,20.83,5,20.83,5l.83,9.72h5.28s11.11-31.38-.83-46.66-41.1-10.83-41.1-10.83S69.73-5.23,55,13.65s-13.33,38.88-6.39,50L54.73,65Z" style="fill:#fff385"/><path d="M86.67,136.06h26l5.83,18.12,16,2.5v9.16s-11.87,5.83-34.37,6.87-38.12-14.16-38.12-14.16l20.62-3.75Z" style="fill:#ffece3"/><path d="M45.29,163.9c-8.33,9.72-10,32.77-10,32.77H163.6s1.94-20.27-9.16-31.1c-5.48-5.34-13.65-7.57-20.53-8.47,0,0-11.82,10.83-31.82,10.83-23.54,0-37.28-10.21-37.28-10.21A19.1,19.1,0,0,0,45.29,163.9Z" style="fill:#ce66ff"/><path d="M148.18,69a11.12,11.12,0,0,0-3.19.52V53.37l-18.88-3.05-20-7.9L80.84,50.87l-23.74,2.5L56.93,69.5a11.24,11.24,0,1,0-.2,20.33l-.06,6s4.58,41.66,44.57,41.66c31.66,0,43.74-39.16,43.74-39.16V91a11.12,11.12,0,0,0,3.19.52,11.25,11.25,0,1,0,0-22.49Z" style="fill:#ffece3"/><ellipse cx="100.14" cy="106.55" rx="4.86" ry="9.58" style="fill:#ec7094"/><circle cx="133.88" cy="102.8" r="9.16" style="fill:#ec7094"/><circle cx="66.12" cy="102.8" r="9.16" style="fill:#ec7094"/><path d="M116.49,61.67c-5.34,0-8.25,2.32-8.57,2.59a2.48,2.48,0,0,0-.32,3.48,2.52,2.52,0,0,0,3.5.38,9.06,9.06,0,0,1,5.38-1.44,9.2,9.2,0,0,1,5.41,1.44,2.5,2.5,0,0,0,3.17-3.86A13.75,13.75,0,0,0,116.49,61.67Z" style="fill:#4c4497"/><path d="M92.08,64.25a13.75,13.75,0,0,0-8.58-2.58c-5.34,0-8.25,2.32-8.57,2.59a2.48,2.48,0,0,0-.31,3.47,2.52,2.52,0,0,0,3.5.38,9.05,9.05,0,0,1,5.38-1.44,9.19,9.19,0,0,1,5.41,1.44,2.5,2.5,0,0,0,3.17-3.86Z" style="fill:#4c4497"/><circle cx="83.89" cy="82.74" r="6.63" style="fill:#4c4497"/><circle cx="116.11" cy="82.74" r="6.63" style="fill:#4c4497"/><path d="M166,180.85a30.52,30.52,0,0,0-27.22-26.53l-15.17-1.57a5.32,5.32,0,0,1-4.68-4.23L116.57,137a47.59,47.59,0,0,0,30.72-39.83,17.16,17.16,0,0,0,8.2-31.32c1.81-5.17,10.59-33.1-4.58-50.25C136.32-.9,113.87,2.91,108.57,4.09,102.89,2,76.3-6.57,55.18,10,32.33,27.82,41.32,57.29,44.56,65.78a17.17,17.17,0,0,0,8.15,31.36A47.59,47.59,0,0,0,83.43,137L81,148.52a5.32,5.32,0,0,1-4.68,4.23l-15.18,1.57A30.52,30.52,0,0,0,34,180.85l-2,15.39A3.33,3.33,0,0,0,34.84,200l.43,0a3.33,3.33,0,0,0,3.3-2.9l2-15.39A23.88,23.88,0,0,1,61.86,161l3.8-.39c9.33,5.61,21.58,8.78,34.34,8.78,2.33,0,4.66-.1,6.93-.31a1.67,1.67,0,0,0,1.51-1.81,1.69,1.69,0,0,0-1.81-1.51c-2.17.2-4.4.29-6.63.29A66.82,66.82,0,0,1,71.56,160l5.49-.57a12,12,0,0,0,10.52-9.51l2.28-11a46.63,46.63,0,0,0,20.32,0l2.28,11A12,12,0,0,0,123,159.38l5.44.56a55.64,55.64,0,0,1-5.4,2.26,1.67,1.67,0,0,0,.56,3.24,1.65,1.65,0,0,0,.56-.09,56.25,56.25,0,0,0,10.22-4.79l3.79.39a23.88,23.88,0,0,1,21.3,20.75l2,15.39a3.33,3.33,0,0,0,3.3,2.9l.43,0a3.33,3.33,0,0,0,2.87-3.73ZM147.52,90.46v-12l3.48,1.9a1.67,1.67,0,1,0,1.59-2.93l-5.08-2.77v-5a10.53,10.53,0,0,1,0,20.79ZM43.63,80.06a10.56,10.56,0,0,1,8.85-10.39v5L47.4,77.46A1.67,1.67,0,1,0,49,80.39l3.48-1.9v12A10.56,10.56,0,0,1,43.63,80.06ZM55.81,51.72a3.33,3.33,0,0,0-3.33,3.33V63a17.55,17.55,0,0,0-1.78.19c-2.85-7.46-10.67-32.92,8.59-48C77.95.6,102.74,9,106.52,10.45l-.33,4.69a1.67,1.67,0,0,0,1.55,1.78h.12a1.67,1.67,0,0,0,1.66-1.55l.33-4.73C113.5,9.81,133.57,6,145.91,20s5.18,37.92,3.42,43.21a17.49,17.49,0,0,0-1.81-.2V55.05a3.34,3.34,0,0,0-3.15-3.33c-.07,0-7.38-.45-18.7-4.38s-17.38-9-17.44-9.09a3.21,3.21,0,0,0-.3-.17l1.17-16.89a1.67,1.67,0,0,0-3.33-.23l-1.17,16.89a3.22,3.22,0,0,0-.61.33c-.07.06-7.57,5.93-20.36,9.73-12.47,3.71-26.46,3.8-27.71,3.8Zm3.33,40.77V58.32a112.16,112.16,0,0,0,26.39-4A76.79,76.79,0,0,0,106,44.93a71.92,71.92,0,0,0,17.46,8.71A94.52,94.52,0,0,0,140.86,58V92.49a40.86,40.86,0,0,1-81.71,0Z" style="fill:#4c4497"/><path d="M116.68,164.08c-.73.18-1.47.34-2.21.49a1.67,1.67,0,0,0,.66,3.27c.78-.16,1.56-.34,2.32-.52a1.67,1.67,0,0,0-.77-3.24Z" style="fill:#4c4497"/><path d="M100,95.48c-4,0-7.19,4.71-7.19,10.73S96,116.94,100,116.94s7.19-4.71,7.19-10.73S104,95.48,100,95.48Zm0,18.12c-1.82,0-3.85-3-3.85-7.39s2-7.39,3.85-7.39,3.85,3,3.85,7.39S101.82,113.6,100,113.6Z" style="fill:#4c4497"/></svg>