<svg id="图层_1" data-name="图层 1" xmlns="http://www.w3.org/2000/svg" viewBox="0 0 200 200"><title>人物插画01</title><path d="M38.35,55.83S42.79,3.89,102.23,3.89s56.11,49.44,56.11,49.44.83,6.11,4.17,9.44,7.5,6.11,5,13.89-5.56,18.06.56,24.17,1.11,15.83-.56,23.33,8.89,11.11,9.72,16.67-5.56,13.61-5.83,18.89,3.33,8.06.56,11.39-9.17,6.39-9.17,6.39H36.12s-9.44-1.67-9.44-5.56,1.39-11.39,1.39-13.89-6.67-7.78-4.72-14.17S32,131.94,32,126.94s-4.72-13.61-3.89-19.17,8.61-12.5,8.61-16.67S30,79.44,31.12,73.89,38.35,62.22,38.35,55.83Z" style="fill:#fff385"/><path d="M86.68,136h26l5.83,18.13,16,2.5v9.17s-11.88,5.83-34.38,6.88S62.1,158.54,62.1,158.54l20.62-3.75Z" style="fill:#ffece3"/><path d="M45.29,163.89c-8.33,9.72-10,32.78-10,32.78H163.62s1.94-20.28-9.17-31.11c-5.48-5.34-13.65-7.58-20.54-8.47,0,0-11.82,10.83-31.82,10.83-23.54,0-37.29-10.21-37.29-10.21A19.1,19.1,0,0,0,45.29,163.89Z" style="fill:#6c9dff"/><path d="M57.1,57.36l26-4.24,23.54-10.35,21,9.31L145,56.25V98.33s-12.08,39.17-43.75,39.17c-40,0-44.58-41.67-44.58-41.67Z" style="fill:#ffece3"/><circle cx="133.9" cy="102.78" r="9.17" style="fill:#ec7094"/><circle cx="66.12" cy="102.78" r="9.17" style="fill:#ec7094"/><path d="M100,140A47.58,47.58,0,0,1,52.48,92.47V57.35A3.33,3.33,0,0,1,55.81,54h.12c1.26,0,15.25-.09,27.71-3.8,12.8-3.81,20.3-9.68,20.37-9.73a3.34,3.34,0,0,1,4.23.07c.06,0,6.27,5.2,17.44,9.09S144.32,54,144.39,54a3.34,3.34,0,0,1,3.16,3.33V92.47A47.58,47.58,0,0,1,100,140ZM59.15,60.62V92.47a40.87,40.87,0,0,0,81.73,0V60.34a94.27,94.27,0,0,1-17.38-4.4A71.77,71.77,0,0,1,106,47.22a76.85,76.85,0,0,1-20.49,9.39A112.1,112.1,0,0,1,59.15,60.62Z" style="fill:#4c4497"/><circle cx="83.9" cy="86.38" r="6.63" style="fill:#4c4497"/><circle cx="116.13" cy="86.38" r="6.63" style="fill:#4c4497"/><path d="M164.76,200a3.33,3.33,0,0,1-3.3-2.9l-2-15.39a23.89,23.89,0,0,0-21.31-20.76L123,159.38a12,12,0,0,1-10.52-9.51l-2.9-14a3.33,3.33,0,0,1,6.53-1.35l2.9,14a5.32,5.32,0,0,0,4.68,4.23l15.18,1.57a30.53,30.53,0,0,1,27.23,26.53l2,15.39a3.33,3.33,0,0,1-2.87,3.73Z" style="fill:#4c4497"/><path d="M35.27,200l-.43,0A3.33,3.33,0,0,1,32,196.24l2-15.39a30.53,30.53,0,0,1,27.22-26.53l15.18-1.57A5.32,5.32,0,0,0,81,148.51l2.9-14a3.33,3.33,0,0,1,6.53,1.35l-2.9,14a12,12,0,0,1-10.52,9.51l-15.18,1.57a23.89,23.89,0,0,0-21.3,20.76l-2,15.39A3.33,3.33,0,0,1,35.27,200Z" style="fill:#4c4497"/><path d="M100,169.33c-14.52,0-28.39-4.1-38-11.23a1.67,1.67,0,1,1,2-2.68C73,162.14,86.19,166,100,166c2.23,0,4.46-.1,6.63-.29a1.69,1.69,0,0,1,1.81,1.51,1.67,1.67,0,0,1-1.51,1.81C104.67,169.23,102.34,169.33,100,169.33Z" style="fill:#4c4497"/><path d="M114.81,167.86a1.67,1.67,0,0,1-.33-3.3c.75-.15,1.48-.32,2.21-.49a1.67,1.67,0,1,1,.77,3.24c-.76.18-1.54.36-2.32.52A1.67,1.67,0,0,1,114.81,167.86Z" style="fill:#4c4497"/><path d="M123.58,165.44a1.67,1.67,0,0,1-.56-3.24A50.58,50.58,0,0,0,135.28,156a1.67,1.67,0,0,1,1.92,2.73,54.14,54.14,0,0,1-13.06,6.63A1.65,1.65,0,0,1,123.58,165.44Z" style="fill:#4c4497"/><path d="M108.14,14.47H108a1.67,1.67,0,0,1-1.55-1.78L107,5.16a1.64,1.64,0,0,1,1.78-1.55,1.67,1.67,0,0,1,1.55,1.78l-.52,7.53A1.67,1.67,0,0,1,108.14,14.47Z" style="fill:#4c4497"/><path d="M106.2,42.43h-.12a1.67,1.67,0,0,1-1.55-1.78L106,19.06a1.64,1.64,0,0,1,1.78-1.55,1.67,1.67,0,0,1,1.55,1.78l-1.5,21.58A1.67,1.67,0,0,1,106.2,42.43Z" style="fill:#4c4497"/><path d="M163.35,180.86a3.33,3.33,0,0,1,0-6.67,6.25,6.25,0,0,0,5.23-2.84,5.6,5.6,0,0,0,.51-5.38,16.37,16.37,0,0,1-1.22-4.8c-.58-5.48,1.32-8.62,2.85-11.15,1.32-2.17,2.27-3.75,1.92-7s-1.6-4.57-3.35-6.41c-2-2.15-4.55-4.81-5.13-10.28s1.32-8.61,2.85-11.13c1.32-2.17,2.27-3.74,1.92-7s-1.6-4.56-3.35-6.41c-2-2.15-4.55-4.81-5.13-10.28s1.32-8.61,2.85-11.13c1.32-2.17,2.27-3.74,1.92-7s-1.6-4.56-3.35-6.41c-2-2.14-4.55-4.81-5.13-10.28a3.33,3.33,0,1,1,6.63-.71c.35,3.23,1.6,4.56,3.35,6.41,2,2.14,4.55,4.81,5.13,10.28s-1.32,8.61-2.85,11.13c-1.32,2.17-2.27,3.74-1.92,7s1.6,4.57,3.35,6.41c2,2.15,4.55,4.81,5.13,10.28s-1.32,8.61-2.85,11.13c-1.32,2.17-2.27,3.74-1.92,7s1.6,4.57,3.35,6.41c2,2.15,4.55,4.81,5.13,10.28S178,151,176.42,153.48c-1.32,2.17-2.27,3.75-1.92,7a9.77,9.77,0,0,0,.71,2.86A12.32,12.32,0,0,1,174.15,175,12.89,12.89,0,0,1,163.35,180.86Z" style="fill:#4c4497"/><path d="M36.26,181.26h-.82a11.6,11.6,0,0,1-9.94-5.39,12.5,12.5,0,0,1-.77-12,9.7,9.7,0,0,0,.76-3c.35-3.24-.61-4.81-1.92-7-1.53-2.53-3.43-5.67-2.85-11.14s3.11-8.14,5.13-10.29c1.75-1.85,3-3.18,3.35-6.42s-.61-4.79-1.92-7c-1.53-2.52-3.43-5.66-2.85-11.13s3.11-8.14,5.14-10.28c1.74-1.85,3-3.18,3.35-6.41s-.61-4.8-1.92-7c-1.53-2.52-3.43-5.67-2.85-11.13S31.26,65,33.28,62.87c1.75-1.85,3-3.18,3.35-6.41a3.3,3.3,0,0,1,3.67-3,3.33,3.33,0,0,1,3,3.67c-.58,5.47-3.11,8.14-5.14,10.28-1.74,1.85-3,3.18-3.35,6.41s.61,4.8,1.92,7c1.53,2.52,3.43,5.67,2.85,11.14s-3.11,8.13-5.13,10.28c-1.74,1.85-3,3.18-3.35,6.41s.61,4.79,1.92,7c1.53,2.53,3.43,5.66,2.85,11.13s-3.11,8.14-5.13,10.28c-1.75,1.85-3,3.18-3.35,6.42s.61,4.8,1.92,7c1.53,2.53,3.43,5.67,2.85,11.14a16,16,0,0,1-1.33,5.06,5.87,5.87,0,0,0,.32,5.64,5,5,0,0,0,4.33,2.33h.82a3.33,3.33,0,1,1,0,6.67Z" style="fill:#4c4497"/><path d="M43.31,56.46l-6.67-.13A57.72,57.72,0,0,1,94.06,0H106a57.77,57.77,0,0,1,57.41,56.07l-6.67.16A51.06,51.06,0,0,0,106,6.67H94.06A51,51,0,0,0,43.31,56.46Z" style="fill:#4c4497"/><path d="M90.62,73.14a3.34,3.34,0,0,1-1-.15L77.84,69.31a3.33,3.33,0,0,1,2-6.36l11.79,3.68a3.33,3.33,0,0,1-1,6.52Z" style="fill:#4c4497"/><path d="M109.4,73.14a3.33,3.33,0,0,1-1-6.52l11.79-3.68a3.33,3.33,0,0,1,2,6.36L110.4,73A3.34,3.34,0,0,1,109.4,73.14Z" style="fill:#4c4497"/><path d="M110.57,110.94H89.46a1.67,1.67,0,1,1,0-3.33h21.11a1.67,1.67,0,1,1,0,3.33Z" style="fill:#4c4497"/></svg>