<svg id="图层_1" data-name="图层 1" xmlns="http://www.w3.org/2000/svg" viewBox="0 0 200 200"><title>人物插画01</title><path d="M81.67,143.33S14.92,115,31.17,57.92c0,0,10.92-57.5,73.83-53.33s68.75,52.92,64.58,75.83-18.75,57.5-53.33,62.5Z" style="fill:#ff9fc2"/><path d="M86.67,136h26l5.83,18.13,16,2.5v9.17s-11.88,5.83-34.38,6.88-38.12-14.17-38.12-14.17l20.62-3.75Z" style="fill:#ffece3"/><path d="M45.28,163.89c-8.33,9.72-10,32.78-10,32.78H163.61s1.94-20.28-9.17-31.11c-5.48-5.34-13.65-7.58-20.54-8.47,0,0-11.82,10.83-31.82,10.83-23.54,0-37.29-10.21-37.29-10.21A19.1,19.1,0,0,0,45.28,163.89Z" style="fill:#6c9dff"/><path d="M148.19,69a11.12,11.12,0,0,0-3.19.52V53.33l-18.89-3.06-20-7.91L80.83,50.83l-23.75,2.5-.16,16.14a11.24,11.24,0,1,0-.2,20.34l-.06,6s4.58,41.67,44.58,41.67c31.67,0,43.75-39.17,43.75-39.17V91a11.12,11.12,0,0,0,3.19.52,11.25,11.25,0,0,0,0-22.5Z" style="fill:#ffece3"/><path d="M102.45,101.4c6.19-.85,14.25-4.59,16.19-1.52s-4,11.27-14.39,12.71-21.74-5.18-17.74-9.7C88.9,100.17,102.45,101.4,102.45,101.4Z" style="fill:#ec7094"/><circle cx="133.89" cy="102.78" r="9.17" style="fill:#ec7094"/><circle cx="66.11" cy="102.78" r="9.17" style="fill:#ec7094"/><path d="M123.59,63.26l-13.26,2.53a2.5,2.5,0,0,0,.47,5,2.34,2.34,0,0,0,.47,0l13.26-2.53a2.5,2.5,0,1,0-.94-4.91Z" style="fill:#4c4497"/><path d="M89.2,70.74a2.5,2.5,0,0,0,.47-5L76.41,63.26a2.5,2.5,0,0,0-.94,4.91L88.73,70.7A2.34,2.34,0,0,0,89.2,70.74Z" style="fill:#4c4497"/><circle cx="83.89" cy="82.72" r="6.63" style="fill:#4c4497"/><circle cx="116.11" cy="82.72" r="6.63" style="fill:#4c4497"/><path d="M138.83,154.31l-15.18-1.57a5.32,5.32,0,0,1-4.68-4.23l-.51-2.47c32.94-8.26,55.71-39,55.71-75.87C174.17,30.17,142.28,0,100,0S25.83,30.17,25.83,70.17c0,37,22.79,67.73,55.7,75.9L81,148.51a5.32,5.32,0,0,1-4.68,4.23l-15.18,1.57a30.53,30.53,0,0,0-27.22,26.53l-2,15.39A3.33,3.33,0,0,0,34.82,200l.43,0a3.33,3.33,0,0,0,3.3-2.9l2-15.39a23.89,23.89,0,0,1,21.3-20.76l3.8-.39c9.33,5.61,21.58,8.78,34.35,8.78,2.33,0,4.66-.1,6.93-.31a1.67,1.67,0,0,0,1.51-1.81,1.69,1.69,0,0,0-1.81-1.51c-2.17.2-4.4.29-6.63.29a66.84,66.84,0,0,1-28.45-6.06l5.49-.57a12,12,0,0,0,10.52-9.51l2.28-11a46.64,46.64,0,0,0,20.32,0l2.28,11A12,12,0,0,0,123,159.38l5.45.56a55.65,55.65,0,0,1-5.4,2.26,1.67,1.67,0,0,0,.56,3.24,1.65,1.65,0,0,0,.56-.09,56.26,56.26,0,0,0,10.23-4.79l3.79.39a23.89,23.89,0,0,1,21.31,20.76l2,15.39a3.33,3.33,0,0,0,3.3,2.9l.43,0a3.33,3.33,0,0,0,2.87-3.73l-2-15.39A30.53,30.53,0,0,0,138.83,154.31ZM59.13,92.47V58.29a112,112,0,0,0,26.4-4A76.92,76.92,0,0,0,106,44.89a71.91,71.91,0,0,0,17.46,8.71A94.54,94.54,0,0,0,140.87,58V92.47a40.87,40.87,0,0,1-81.73,0Zm88.16,4.65A17.14,17.14,0,0,0,147.53,63V55a3.34,3.34,0,0,0-3.16-3.33c-.07,0-7.38-.45-18.69-4.38s-17.39-9-17.45-9.09a3.12,3.12,0,0,0-.3-.17l1.17-16.9a1.67,1.67,0,1,0-3.33-.23l-1.17,16.9a3.21,3.21,0,0,0-.61.33c-.07.06-7.57,5.92-20.37,9.74-12.47,3.71-26.46,3.8-27.71,3.8H55.8A3.33,3.33,0,0,0,52.47,55v8a17.14,17.14,0,0,0,.24,34.15A47.6,47.6,0,0,0,83.43,137l-.54,2.58C53.1,132,32.5,103.92,32.5,70.17c0-36.2,29-63.5,67.5-63.5,2.48,0,4.91.12,7.3.34a1.67,1.67,0,0,0-.63,1.21l-.48,6.88a1.67,1.67,0,0,0,1.55,1.78h.12a1.67,1.67,0,0,0,1.66-1.55L110,8.45a1.66,1.66,0,0,0-.36-1.12c33.57,4.15,57.86,29.74,57.86,62.84,0,33.71-20.58,61.72-50.4,69.34l-.53-2.55A47.6,47.6,0,0,0,147.3,97.12Zm.24-18.66,3.48,1.9a1.67,1.67,0,1,0,1.6-2.93l-5.08-2.77v-5a10.53,10.53,0,0,1,0,20.79Zm-95.07,12a10.53,10.53,0,0,1,0-20.79v5l-5.08,2.77A1.67,1.67,0,0,0,49,80.36l3.48-1.9Z" style="fill:#4c4497"/><path d="M116.69,164.07c-.73.18-1.47.34-2.21.49a1.67,1.67,0,0,0,.66,3.27c.78-.16,1.56-.34,2.32-.52a1.67,1.67,0,0,0,1.23-2A1.65,1.65,0,0,0,116.69,164.07Z" style="fill:#4c4497"/><path d="M117.65,96c-1.92-.56-4.47.3-7.44,1.3-.81.27-1.62.55-2.42.79a58.71,58.71,0,0,1-6.18,1.5,58.8,58.8,0,0,1-6.3.65c-.82,0-1.67.05-2.52.07-3.14,0-5.86.09-7.46,1.26a4.56,4.56,0,0,0-1.7,5.71c1.52,3.61,7.26,6.61,14.84,6.61a30.56,30.56,0,0,0,5.23-.46,1.65,1.65,0,0,0,.34,0c10.36-1.8,16.85-7.81,17.13-12.58A4.56,4.56,0,0,0,117.65,96Zm-14.23,14.11c-9,1.54-15.6-1.47-16.72-4.14-.21-.51-.29-1.07.6-1.72s3.53-.59,5.55-.62c.89,0,1.78,0,2.64-.07a60.79,60.79,0,0,0,6.72-.69,61.13,61.13,0,0,0,6.55-1.59c.82-.24,1.68-.53,2.52-.82a21.83,21.83,0,0,1,5-1.31,1.47,1.47,0,0,1,.41,0c1.05.31,1.17.87,1.14,1.42C117.66,103.52,112.45,108.57,103.42,110.13Z" style="fill:#4c4497"/></svg>