<svg id="图层_1" data-name="图层 1" xmlns="http://www.w3.org/2000/svg" viewBox="0 0 200 200"><title>人物插画01</title><path d="M35.83,54s10-50.42,66.25-49.79,63.12,54.17,63.12,54.17L169,124.17a17.67,17.67,0,0,1-4.58,12.29c-5.21,6-8.54,6.88-8.54,6.88H52.71s-13.33,2.08-17.29-7.71-4-16.25-4-16.25Z" style="fill:#fff385"/><path d="M86.67,136h26l5.83,18.13,16,2.5v9.17s-11.88,5.83-34.38,6.88-38.12-14.17-38.12-14.17l20.62-3.75Z" style="fill:#ffece3"/><path d="M45.28,163.89c-8.33,9.72-10,32.78-10,32.78H163.61s1.94-20.28-9.17-31.11c-5.48-5.34-13.65-7.58-20.54-8.47,0,0-11.82,10.83-31.82,10.83-23.54,0-37.29-10.21-37.29-10.21A19.1,19.1,0,0,0,45.28,163.89Z" style="fill:#5bf499"/><path d="M57.08,57.36l49.58-14.58L145,56.25V98.33s-12.08,39.17-43.75,39.17c-40,0-44.58-41.67-44.58-41.67Z" style="fill:#ffece3"/><circle cx="133.89" cy="102.78" r="9.17" style="fill:#ec7094"/><circle cx="66.11" cy="102.78" r="9.17" style="fill:#ec7094"/><path d="M88.07,69.75a2.5,2.5,0,0,0,3.17-3.86,13.75,13.75,0,0,0-8.58-2.58c-5.34,0-8.26,2.32-8.57,2.59a2.48,2.48,0,0,0-.31,3.47,2.52,2.52,0,0,0,3.5.38,9.05,9.05,0,0,1,5.38-1.44A9.19,9.19,0,0,1,88.07,69.75Z" style="fill:#4c4497"/><path d="M117.32,63.31c-5.34,0-8.26,2.32-8.57,2.59a2.48,2.48,0,0,0-.32,3.48,2.52,2.52,0,0,0,3.5.38,9.06,9.06,0,0,1,5.38-1.44,9.2,9.2,0,0,1,5.41,1.44,2.5,2.5,0,0,0,3.17-3.86A13.75,13.75,0,0,0,117.32,63.31Z" style="fill:#4c4497"/><path d="M138.83,154.31l-15.18-1.57a5.35,5.35,0,0,1-4.7-4.32l-.18-.76h30.07a23.62,23.62,0,0,0,23.56-25.29L168,60.49A65.31,65.31,0,0,0,103.09,0H96.91A65.31,65.31,0,0,0,32,60.49l-4.39,61.89a23.62,23.62,0,0,0,23.56,25.29H81.23l-.2.85a5.32,5.32,0,0,1-4.68,4.23l-15.18,1.57a30.53,30.53,0,0,0-27.22,26.53l-2,15.39A3.33,3.33,0,0,0,34.82,200l.43,0a3.33,3.33,0,0,0,3.3-2.9l2-15.39a23.89,23.89,0,0,1,21.3-20.76l3.8-.39c9.33,5.61,21.58,8.78,34.35,8.78,2.33,0,4.66-.1,6.93-.31a1.67,1.67,0,0,0,1.51-1.81,1.69,1.69,0,0,0-1.81-1.51c-2.17.2-4.4.29-6.63.29a66.84,66.84,0,0,1-28.45-6.06l5.49-.57A11.94,11.94,0,0,0,87.54,150l2.59-11a47.12,47.12,0,0,0,19.74,0l2.57,10.91A12,12,0,0,0,123,159.38l5.45.56a55.65,55.65,0,0,1-5.4,2.26,1.67,1.67,0,0,0,.56,3.24,1.65,1.65,0,0,0,.56-.09,56.26,56.26,0,0,0,10.23-4.79l3.79.39a23.89,23.89,0,0,1,21.31,20.76l2,15.39a3.33,3.33,0,0,0,3.3,2.9l.43,0a3.33,3.33,0,0,0,2.87-3.73l-2-15.39A30.53,30.53,0,0,0,138.83,154.31ZM59.13,92.47V58.29a112.19,112.19,0,0,0,26.4-4A76.81,76.81,0,0,0,106,44.89a71.94,71.94,0,0,0,17.46,8.72A94.54,94.54,0,0,0,140.87,58V92.47a40.87,40.87,0,0,1-81.73,0Zm88.4,0V55a3.34,3.34,0,0,0-3.15-3.33c-.07,0-7.39-.45-18.7-4.38s-17.39-9-17.44-9.09h0l2.72-16.87a1.67,1.67,0,1,0-3.29-.53l-2.71,16.82a3.31,3.31,0,0,0-.95.52c-.07.06-7.57,5.93-20.37,9.74-13,3.88-27.67,3.82-27.81,3.8a3.78,3.78,0,0,0-2.37,1,3.33,3.33,0,0,0-1,2.37V92.47a47.57,47.57,0,0,0,31.26,44.6L82.8,141H51.15a17,17,0,0,1-16.91-18.15L38.63,61A58.63,58.63,0,0,1,96.91,6.67h6.18a58,58,0,0,1,6.78.44L109,12.56a1.67,1.67,0,0,0,1.38,1.91l.27,0a1.67,1.67,0,0,0,1.64-1.4l.88-5.5A58.65,58.65,0,0,1,161.37,61l4.39,61.89A17,17,0,0,1,148.85,141H117.2l-.93-3.93A47.57,47.57,0,0,0,147.53,92.47Z" style="fill:#4c4497"/><path d="M116.69,164.07c-.73.18-1.47.34-2.21.49a1.67,1.67,0,0,0,.66,3.27c.78-.16,1.56-.34,2.32-.52a1.67,1.67,0,1,0-.77-3.24Z" style="fill:#4c4497"/><path d="M111.67,99.72a1.67,1.67,0,0,0-1.67,1.67c0,4.3-4.49,7.8-10,7.8s-10-3.5-10-7.8a1.67,1.67,0,0,0-3.33,0c0,6.14,6,11.14,13.33,11.14s13.33-5,13.33-11.14A1.67,1.67,0,0,0,111.67,99.72Z" style="fill:#4c4497"/><path d="M117.32,79.59a13,13,0,0,0-8,2.39,1.67,1.67,0,0,0,2.13,2.56,9.78,9.78,0,0,1,5.9-1.62,9.89,9.89,0,0,1,5.92,1.62A1.67,1.67,0,0,0,125.37,82,13.08,13.08,0,0,0,117.32,79.59Z" style="fill:#4c4497"/><circle cx="84.28" cy="82.26" r="6.63" style="fill:#4c4497"/></svg>