<svg id="图层_1" data-name="图层 1" xmlns="http://www.w3.org/2000/svg" viewBox="0 0 200 200"><title>人物插画01</title><path d="M86.44,136h26l5.83,18.12,16,2.5v9.17s-11.87,5.83-34.37,6.87-38.12-14.17-38.12-14.17l20.62-3.75Z" style="fill:#ffece3"/><path d="M45.05,163.89c-8.33,9.72-10,32.78-10,32.78H163.38s1.94-20.28-9.17-31.11c-5.48-5.34-13.65-7.58-20.54-8.47,0,0-11.82,10.83-31.82,10.83-23.54,0-37.29-10.21-37.29-10.21A19.1,19.1,0,0,0,45.05,163.89Z" style="fill:#5bf499"/><path d="M148,69a11.12,11.12,0,0,0-3.19.52V51.67l-16.67-.13-6.8-7.1-6.25,7L56.86,51,56.7,69.47a11.24,11.24,0,1,0-.2,20.34l-.06,6S61,137.5,101,137.5c31.67,0,43.75-39.17,43.75-39.17V91a11.12,11.12,0,0,0,3.19.52A11.25,11.25,0,0,0,148,69Z" style="fill:#ffece3"/><circle cx="133.66" cy="102.78" r="9.17" style="fill:#ec7094"/><circle cx="65.89" cy="102.78" r="9.17" style="fill:#ec7094"/><path d="M45.61,66.67,55,65l.42-11.87h58.54L121,42.5l8.33,11.67h12.71L145.81,65l7.71,1.67,5-19,7.71-.21s-2.5-25.62-18.75-33.33-28.33-1.67-28.33-1.67S90.4-4.37,67.48,5.63s-33.33,39-33.33,39l7.5,3.75Z" style="fill:#6c9dff"/><path d="M98.94,101.67c9.17,0,22.5-5,25.83-.83S120.19,119,102.9,119s-33.2-7.86-29-17.29C75.82,97.5,98.94,101.67,98.94,101.67Z" style="fill:#ec7094"/><path d="M116.46,164.07c-.73.18-1.47.34-2.21.49a1.67,1.67,0,0,0,.66,3.27c.78-.16,1.56-.34,2.32-.52a1.67,1.67,0,1,0-.77-3.24Z" style="fill:#4c4497"/><path d="M118.78,79.23a1.67,1.67,0,0,0-2.35-.24l-6.66,5.4a1.67,1.67,0,0,0,.65,2.91L119,89.44a1.73,1.73,0,0,0,.4,0,1.67,1.67,0,0,0,.4-3.28l-5.32-1.33,4.07-3.3A1.67,1.67,0,0,0,118.78,79.23Z" style="fill:#4c4497"/><path d="M78.54,88.23a1.67,1.67,0,0,0,1.62,1.26,1.73,1.73,0,0,0,.4,0l8.56-2.14a1.67,1.67,0,0,0,.65-2.91L83.11,79A1.67,1.67,0,1,0,81,81.58l4.07,3.3L79.76,86.2A1.67,1.67,0,0,0,78.54,88.23Z" style="fill:#4c4497"/><path d="M76,74.39a2.54,2.54,0,0,0,2-1,9.11,9.11,0,0,1,4.83-2.78,9.09,9.09,0,0,1,5.6,0A2.5,2.5,0,0,0,90.48,66a13.8,13.8,0,0,0-9-.27,13.66,13.66,0,0,0-7.61,4.72A2.49,2.49,0,0,0,76,74.39Z" style="fill:#4c4497"/><path d="M111.14,70.59a9,9,0,0,1,5.57,0,9.23,9.23,0,0,1,4.85,2.79,2.5,2.5,0,0,0,4.07-2.91A15.52,15.52,0,0,0,109.05,66a2.49,2.49,0,0,0-1.2,3.28A2.53,2.53,0,0,0,111.14,70.59Z" style="fill:#4c4497"/><path d="M124.41,98.31c-2.5-1.36-6.65-.64-11.06.11-1.3.22-2.6.45-3.85.62a81.16,81.16,0,0,1-9.72.73A80.79,80.79,0,0,1,90.05,99c-1.26-.17-2.57-.39-3.86-.61-4.41-.76-8.56-1.47-11.06-.11a6.74,6.74,0,0,0-3.44,8C73.53,113.5,84.52,121,99.77,121h.1c15.18,0,26.14-7.52,28-14.73A6.74,6.74,0,0,0,124.41,98.31Zm.21,7.14c-1.24,4.91-10,12.17-24.77,12.22h-.1c-14.82,0-23.56-7.3-24.81-12.21a3.41,3.41,0,0,1,1.8-4.22,4.73,4.73,0,0,1,2.15-.37,45.21,45.21,0,0,1,6.74.84c1.34.23,2.69.46,4,.63a84.45,84.45,0,0,0,10.16.76,84.82,84.82,0,0,0,10.16-.76c1.29-.18,2.64-.4,4-.63,3.48-.6,7.42-1.28,8.9-.47A3.41,3.41,0,0,1,124.61,105.45Z" style="fill:#4c4497"/><path d="M171.23,47.42c-.29-1.2-7.39-29.51-25.3-38.1a33.17,33.17,0,0,0-26.22-1.4C115,4.59,101.15-3,75.89,1.26,37.72,7.67,28.83,46.12,28.75,46.51a3.33,3.33,0,0,0,3,4l7.52.48a93.66,93.66,0,0,0,3.44,16,17.09,17.09,0,0,0,9.73,30.07A47.6,47.6,0,0,0,83.2,137l-2.4,11.55a5.32,5.32,0,0,1-4.68,4.23l-15.18,1.57a30.53,30.53,0,0,0-27.22,26.53l-2,15.39A3.33,3.33,0,0,0,34.6,200l.43,0a3.33,3.33,0,0,0,3.3-2.9l2-15.39a23.89,23.89,0,0,1,21.3-20.76l3.8-.39c9.33,5.61,21.58,8.78,34.35,8.78,2.33,0,4.66-.1,6.93-.31a1.67,1.67,0,0,0,1.51-1.81,1.69,1.69,0,0,0-1.81-1.51c-2.17.2-4.4.29-6.63.29a66.84,66.84,0,0,1-28.45-6.06l5.49-.57a12,12,0,0,0,10.52-9.51l2.28-11a46.64,46.64,0,0,0,20.32,0l2.28,11a12,12,0,0,0,10.52,9.51l5.45.56a55.65,55.65,0,0,1-5.4,2.26,1.67,1.67,0,0,0,.56,3.24,1.65,1.65,0,0,0,.56-.09,56.26,56.26,0,0,0,10.23-4.79l3.79.39a23.89,23.89,0,0,1,21.3,20.76l2,15.39a3.33,3.33,0,0,0,3.3,2.9l.43,0a3.33,3.33,0,0,0,2.87-3.73l-2-15.39a30.53,30.53,0,0,0-27.23-26.53l-15.18-1.57a5.32,5.32,0,0,1-4.68-4.23L116.35,137a47.6,47.6,0,0,0,30.72-39.84,17.09,17.09,0,0,0,9.4-30.34c.55-1.58,1.69-5,2.79-8.85.76-2.69,1.41-5.33,1.86-7.27l6.44.86a3.33,3.33,0,0,0,3.68-4.09ZM43.39,80a10.56,10.56,0,0,1,8.85-10.4v5l-5.08,2.77a1.67,1.67,0,0,0,1.6,2.93l3.48-1.9v12A10.56,10.56,0,0,1,43.39,80Zm97.25,12.43a40.86,40.86,0,0,1-81.73,0V56h55.14a3.34,3.34,0,0,0,2.86-1.63l4-6.78,4.67,6.93A3.33,3.33,0,0,0,128.38,56h12.26Zm6.67-2v-12l3.48,1.9a1.67,1.67,0,0,0,1.6-2.93l-5.08-2.77v-5a10.53,10.53,0,0,1,0,20.79ZM159,43.64a3.35,3.35,0,0,0-3.71,2.63s-1,5-2.42,9.84c-.86,3-1.76,5.77-2.34,7.5a17,17,0,0,0-3.2-.63V52.69A3.33,3.33,0,0,0,144,49.36H130.16l-6.62-9.83a3.23,3.23,0,0,0-2.86-1.47,3.34,3.34,0,0,0-2.77,1.63l-5.75,9.67H55.58a3.33,3.33,0,0,0-3.33,3.33V63a17,17,0,0,0-3.54.73A96.52,96.52,0,0,1,45.59,47.5a3.34,3.34,0,0,0-3.1-2.95l-6.13-.39C39.43,35,49.69,12.42,77,7.84c27.64-4.65,39.82,6.26,39.92,6.35a3.36,3.36,0,0,0,3.86.53c.41-.21,10.19-5.18,22.27.61,11.09,5.32,17.58,20.93,20.26,28.9Z" style="fill:#4c4497"/></svg>