<svg id="图层_1" data-name="图层 1" xmlns="http://www.w3.org/2000/svg" viewBox="0 0 200 200"><title>人物插画01</title><path d="M86.67,136h26l5.83,18.13,16,2.5v9.17s-11.88,5.83-34.38,6.88-38.12-14.17-38.12-14.17l20.62-3.75Z" style="fill:#ffece3"/><path d="M45.28,163.89c-8.33,9.72-10,32.78-10,32.78H163.61s1.94-20.28-9.17-31.11c-5.48-5.34-13.65-7.58-20.54-8.47,0,0-11.82,10.83-31.82,10.83-23.54,0-37.29-10.21-37.29-10.21A19.1,19.1,0,0,0,45.28,163.89Z" style="fill:#fff385"/><circle cx="133.89" cy="102.78" r="9.17" style="fill:#ec7094"/><circle cx="66.11" cy="102.78" r="9.17" style="fill:#ec7094"/><path d="M47.5,65.83V46.25s7.92-42.5,55.42-42.5,48.75,47.5,48.75,47.5l-.83,15s12.08,5.83,9.58,15.83-14.58,11.67-14.58,11.67-7.5,43.33-45.42,43.33S55,95,55,95,40,90,40,79.58,47.5,65.83,47.5,65.83Z" style="fill:#ffece3"/><ellipse cx="99.69" cy="105.83" rx="4.58" ry="8.89" style="fill:#ec7094"/><circle cx="133.89" cy="102.78" r="9.17" style="fill:#ec7094"/><circle cx="66.11" cy="102.78" r="9.17" style="fill:#ec7094"/><path d="M100,140A47.58,47.58,0,0,1,52.47,92.47V62.69a3.33,3.33,0,0,1,6.67,0V92.47a40.87,40.87,0,0,0,81.73,0V62.69a3.33,3.33,0,0,1,6.67,0V92.47A47.58,47.58,0,0,1,100,140Z" style="fill:#4c4497"/><path d="M145.81,97.27V90.61a10.57,10.57,0,1,0,0-21.14V62.8a17.24,17.24,0,1,1,0,34.47Z" style="fill:#4c4497"/><path d="M54.19,97.27a17.24,17.24,0,1,1,0-34.47v6.67a10.57,10.57,0,1,0,0,21.14Z" style="fill:#4c4497"/><path d="M123.47,68.64a2.49,2.49,0,0,1-1.57-.56,9.2,9.2,0,0,0-5.41-1.44,9.06,9.06,0,0,0-5.38,1.44,2.52,2.52,0,0,1-3.5-.38,2.48,2.48,0,0,1,.32-3.48c.32-.26,3.23-2.59,8.57-2.59a13.75,13.75,0,0,1,8.58,2.58,2.5,2.5,0,0,1-1.6,4.42Z" style="fill:#4c4497"/><path d="M90.47,68.64a2.49,2.49,0,0,1-1.57-.56,9.19,9.19,0,0,0-5.41-1.44,9.05,9.05,0,0,0-5.38,1.44,2.52,2.52,0,0,1-3.5-.38,2.48,2.48,0,0,1,.31-3.47c.32-.27,3.23-2.59,8.57-2.59a13.75,13.75,0,0,1,8.58,2.58,2.5,2.5,0,0,1-1.6,4.42Z" style="fill:#4c4497"/><path d="M151.81,80.57a1.66,1.66,0,0,1-.8-.2l-5.4-2.95a1.67,1.67,0,1,1,1.6-2.93l5.4,2.95a1.67,1.67,0,0,1-.8,3.13Z" style="fill:#4c4497"/><path d="M48.19,80.57a1.67,1.67,0,0,1-.8-3.13l5.4-2.95a1.67,1.67,0,1,1,1.6,2.93L49,80.36A1.66,1.66,0,0,1,48.19,80.57Z" style="fill:#4c4497"/><path d="M164.75,200a3.33,3.33,0,0,1-3.3-2.9l-2-15.39a23.89,23.89,0,0,0-21.31-20.76L123,159.38a12,12,0,0,1-10.52-9.51l-2.9-14a3.33,3.33,0,0,1,6.53-1.35l2.9,14a5.32,5.32,0,0,0,4.68,4.23l15.18,1.57a30.53,30.53,0,0,1,27.23,26.53l2,15.39a3.33,3.33,0,0,1-2.87,3.73Z" style="fill:#4c4497"/><path d="M35.25,200l-.43,0a3.33,3.33,0,0,1-2.87-3.73l2-15.39a30.53,30.53,0,0,1,27.22-26.53l15.18-1.57A5.32,5.32,0,0,0,81,148.51l2.9-14a3.33,3.33,0,0,1,6.53,1.35l-2.9,14A12,12,0,0,1,77,159.38l-15.18,1.57a23.89,23.89,0,0,0-21.3,20.76l-2,15.39A3.33,3.33,0,0,1,35.25,200Z" style="fill:#4c4497"/><path d="M100,169.33c-14.52,0-28.39-4.1-38-11.23a1.67,1.67,0,1,1,2-2.68C73,162.14,86.18,166,100,166c2.23,0,4.46-.1,6.63-.29a1.67,1.67,0,1,1,.3,3.32C104.66,169.23,102.33,169.33,100,169.33Z" style="fill:#4c4497"/><path d="M114.8,167.86a1.67,1.67,0,0,1-.33-3.3c.75-.15,1.48-.32,2.21-.49a1.67,1.67,0,1,1,.77,3.24c-.76.18-1.54.36-2.32.52A1.67,1.67,0,0,1,114.8,167.86Z" style="fill:#4c4497"/><path d="M123.57,165.44a1.67,1.67,0,0,1-.56-3.24A50.58,50.58,0,0,0,135.27,156a1.67,1.67,0,0,1,1.92,2.73,54.14,54.14,0,0,1-13.06,6.63A1.65,1.65,0,0,1,123.57,165.44Z" style="fill:#4c4497"/><path d="M100,116.92c-4,0-7.19-4.71-7.19-10.73S96,95.46,100,95.46s7.19,4.71,7.19,10.73S104,116.92,100,116.92Zm0-18.12c-1.82,0-3.85,3-3.85,7.4s2,7.4,3.85,7.4,3.85-3,3.85-7.4S101.82,98.79,100,98.79Z" style="fill:#4c4497"/><path d="M154.67,69.27l-6.67-.2.38-12.52a48.4,48.4,0,1,0-96.76,0L52,69.07l-6.67.2L45,56.74a55.07,55.07,0,1,1,110.09,0Z" style="fill:#4c4497"/><path d="M83.6,18.63a1.67,1.67,0,0,1-.68-3.19,44.87,44.87,0,0,1,5.57-2,1.67,1.67,0,0,1,.94,3.2,41.35,41.35,0,0,0-5.16,1.89A1.67,1.67,0,0,1,83.6,18.63Z" style="fill:#4c4497"/><path d="M67.19,31.27a1.67,1.67,0,0,1-1.3-2.71A45.64,45.64,0,0,1,76.46,19a1.67,1.67,0,0,1,1.83,2.79,42.31,42.31,0,0,0-9.8,8.9A1.67,1.67,0,0,1,67.19,31.27Z" style="fill:#4c4497"/><path d="M122.64,80H110.69a2.5,2.5,0,0,1,0-5h11.95a2.5,2.5,0,0,1,0,5Z" style="fill:#4c4497"/><path d="M89.31,80H77.36a2.5,2.5,0,1,1,0-5H89.31a2.5,2.5,0,0,1,0,5Z" style="fill:#4c4497"/></svg>