<svg id="图层_1" data-name="图层 1" xmlns="http://www.w3.org/2000/svg" viewBox="0 0 200 200"><title>人物插画01</title><path d="M40,55.28s1.94-52.5,60.28-52.5,60.56,51.94,60.56,51.94,2.22,4.44,5.28,10-5.83,7.22-5,13.33,6.94,4.44,6.94,10-7.5,6.11-6.67,11.39,6.94,4.44,6.94,9.44-5.83,5-5.56,10.28,8.89,6.11,5.83,11.67-6.67,8.33-11.67,8.61-8.61-3.89-12.22-3.61-9.17,9.72-13.06,9.72-10.28-6.39-12.5-6.11-36.11,0-36.11,0-11.11,4.72-14.44,5.28-8.61-8.33-12.5-8.33-8.33,3.06-12.78,2.22-12.22-8.06-11.39-11.94,5.56-4.72,5.56-9.44-6.67-6.67-6.67-8.61,6.11-6.67,6.67-11.39-4.72-7.5-4.44-10.83,5.28-4.72,5.28-8.89-5-6.67-5-11.11S40,55.28,40,55.28Z" style="fill:#6c9dff"/><path d="M86.67,136h26l5.83,18.13,16,2.5v9.17s-11.88,5.83-34.38,6.88-38.12-14.17-38.12-14.17l20.62-3.75Z" style="fill:#ffece3"/><path d="M45.28,163.89c-8.33,9.72-10,32.78-10,32.78H163.61s1.94-20.28-9.17-31.11c-5.48-5.34-13.65-7.58-20.54-8.47,0,0-11.82,10.83-31.82,10.83-23.54,0-37.29-10.21-37.29-10.21A19.1,19.1,0,0,0,45.28,163.89Z" style="fill:#fff385"/><path d="M57.08,56.67H145V98.33s-12.08,39.17-43.75,39.17c-40,0-44.58-41.67-44.58-41.67Z" style="fill:#ffece3"/><circle cx="133.89" cy="102.78" r="9.17" style="fill:#ec7094"/><circle cx="66.11" cy="102.78" r="9.17" style="fill:#ec7094"/><circle cx="83.9" cy="86.38" r="6.63" style="fill:#4c4497"/><circle cx="116.13" cy="86.38" r="6.63" style="fill:#4c4497"/><path d="M116.7,164.07q-1.1.26-2.22.49a1.67,1.67,0,0,0,.66,3.27c.78-.16,1.56-.34,2.33-.52a1.67,1.67,0,0,0-.77-3.24Z" style="fill:#4c4497"/><path d="M166.72,121.17c-1.35-1-1.5-1.47-1.51-2.12,0-.89.38-1.34,2-2.67,1.8-1.48,4.53-3.72,4.44-8s-2.91-6.35-4.78-7.76c-1.67-1.26-2.1-1.69-2.12-2.57s.38-1.33,2-2.66c1.8-1.48,4.52-3.71,4.44-8s-2.91-6.35-4.78-7.75c-1.67-1.26-2.1-1.69-2.11-2.57s.38-1.32,2-2.65c1.8-1.48,4.53-3.71,4.44-7.95S167.83,60.2,166,58.8c-1.67-1.26-2.09-1.69-2.11-2.73A57.77,57.77,0,0,0,106.44,0H93.56C62.63,0,36.88,25.15,36.15,56.23c0,.88-.44,1.31-2.11,2.57-1.87,1.4-4.68,3.52-4.78,7.76S31.9,73,33.7,74.51c1.61,1.32,2,1.77,2,2.65s-.44,1.31-2.11,2.57c-1.87,1.4-4.68,3.52-4.78,7.75s2.64,6.47,4.44,8c1.62,1.33,2,1.78,2,2.66s-.44,1.31-2.12,2.57c-1.87,1.4-4.68,3.52-4.78,7.76s2.63,6.48,4.44,8c1.62,1.33,2,1.78,2,2.67,0,.65-.17,1.07-1.51,2.12A10.68,10.68,0,0,0,31,135.85c2.88,4,6.45,6.53,10.31,7.26,3.38.65,6.65-.84,9.54-2.14,1.72-.77,3.87-1.74,4.83-1.55s2.57,1.94,3.75,3.24c2.11,2.29,4.5,4.9,7.81,5.33a7.5,7.5,0,0,0,1,.07c2.93,0,5.59-1.7,8-3.21,1.48-.94,3.51-2.28,4.45-2.16a3.42,3.42,0,0,1,1.44.68L81,148.51a5.32,5.32,0,0,1-4.68,4.23l-15.18,1.57A30.53,30.53,0,0,0,34,180.84l-2,15.39A3.33,3.33,0,0,0,34.83,200l.43,0a3.33,3.33,0,0,0,3.3-2.9l2-15.39a23.89,23.89,0,0,1,21.3-20.76l3.79-.39c9.33,5.61,21.58,8.78,34.35,8.78,2.33,0,4.66-.1,6.93-.31a1.67,1.67,0,0,0,1.51-1.81,1.69,1.69,0,0,0-1.81-1.51c-2.17.2-4.4.29-6.63.29a66.85,66.85,0,0,1-28.45-6.06l5.49-.57a12,12,0,0,0,10.52-9.51l2.28-11a46.64,46.64,0,0,0,20.33,0l2.28,11A12,12,0,0,0,123,159.38l5.45.56a55.65,55.65,0,0,1-5.4,2.26,1.67,1.67,0,0,0,.56,3.24,1.65,1.65,0,0,0,.56-.09,56.26,56.26,0,0,0,10.23-4.79l3.79.39a23.88,23.88,0,0,1,21.3,20.76l2,15.39a3.34,3.34,0,0,0,3.3,2.9l.43,0a3.34,3.34,0,0,0,2.88-3.74l-2-15.39a30.53,30.53,0,0,0-27.23-26.53l-15.18-1.57a5.33,5.33,0,0,1-4.68-4.23l-1.07-5.15a3.4,3.4,0,0,1,1.42-.67c.88-.12,3,1.22,4.45,2.16,2.63,1.68,5.57,3.57,8.94,3.14s5.7-3,7.81-5.33c1.19-1.29,2.82-3.06,3.75-3.24s3.12.78,4.83,1.55c2.89,1.3,6.15,2.78,9.54,2.14,3.87-.72,7.43-3.23,10.31-7.25A10.68,10.68,0,0,0,166.72,121.17ZM59.15,92.47V60.69h81.73V92.47a40.87,40.87,0,0,1-81.73,0Zm103.48,34a4,4,0,0,1,.92,5.54c-1.3,1.81-3.41,4.08-6.13,4.59-1.3.26-3.58-.77-5.58-1.67-2.83-1.27-5.75-2.59-8.78-2s-5.42,3.08-7.45,5.28c-1.21,1.32-2.86,3.12-3.77,3.24s-3-1.19-4.49-2.16c-2.48-1.58-5.27-3.38-8.41-3.18a47.58,47.58,0,0,0,28.6-43.57V57.35A3.33,3.33,0,0,0,144.21,54H55.81a3.33,3.33,0,0,0-3.33,3.33V92.47A47.58,47.58,0,0,0,81.08,136c-3.12-.21-5.94,1.6-8.44,3.18-1.51,1-3.62,2.24-4.48,2.16s-2.57-1.92-3.77-3.24c-2-2.2-4.32-4.7-7.45-5.28s-5.95.76-8.78,2c-2,.9-4.27,1.88-5.58,1.67-2.71-.51-4.83-2.78-6.13-4.59a4,4,0,0,1,.92-5.54,9.1,9.1,0,0,0,4.09-7.24c.09-4.24-2.63-6.48-4.44-8-1.62-1.33-2-1.78-2-2.67s.44-1.31,2.12-2.57c1.87-1.4,4.68-3.52,4.78-7.76s-2.63-6.47-4.44-8c-1.62-1.32-2-1.78-2-2.66s.44-1.31,2.11-2.57c1.87-1.4,4.69-3.52,4.78-7.76s-2.64-6.47-4.44-7.95c-1.61-1.32-2-1.77-2-2.65s.44-1.31,2.12-2.57c1.87-1.4,4.68-3.52,4.77-7.91A51.06,51.06,0,0,1,93.56,6.67h12.88a51.08,51.08,0,0,1,50.74,49.71c.09,4.24,2.91,6.35,4.78,7.75,1.67,1.26,2.1,1.69,2.12,2.57s-.38,1.32-2,2.65c-1.8,1.48-4.53,3.71-4.44,7.95s2.91,6.35,4.78,7.76c1.67,1.25,2.09,1.69,2.11,2.57s-.38,1.33-2,2.66c-1.8,1.48-4.53,3.72-4.44,8s2.91,6.35,4.78,7.76c1.67,1.26,2.1,1.69,2.12,2.57s-.38,1.34-2,2.67c-1.8,1.48-4.53,3.72-4.44,8A9.1,9.1,0,0,0,162.62,126.43Z" style="fill:#4c4497"/><path d="M122.77,67,111,66a2.54,2.54,0,0,0-2.7,2.28,2.49,2.49,0,0,0,2.28,2.7l11.78,1h.21a2.5,2.5,0,0,0,.21-5Z" style="fill:#4c4497"/><path d="M77.65,71.95l11.78-1A2.5,2.5,0,0,0,89,66L77.23,67a2.5,2.5,0,0,0,.21,5Z" style="fill:#4c4497"/><path d="M109.31,100.45a1.67,1.67,0,0,0-1.67,1.67,7.64,7.64,0,0,1-15.28,0,1.67,1.67,0,1,0-3.33,0,11,11,0,0,0,21.95,0A1.67,1.67,0,0,0,109.31,100.45Z" style="fill:#4c4497"/></svg>