<svg id="图层_1" data-name="图层 1" xmlns="http://www.w3.org/2000/svg" viewBox="0 0 200 200"><title>人物插画01</title><path d="M58.39,59.17s8.72.37,28.42-4.73,31.94-9.31,31.94-9.31l21.81,10.69s-.56,9.72.56,10,16.39,2.5,16.67,15-13.33,12.78-13.33,12.78l-1.67,18.61s.56,11.11-7.22,16.94a37.93,37.93,0,0,1-15.83,6.94H78.61S65,133.89,61.39,126.67a121.74,121.74,0,0,1-6.11-15l.83-17.78S40.56,90.28,41.67,79.44,56.94,67.78,56.94,67.78Z" style="fill:#ffece3"/><path d="M86.67,136h26l5.83,18.13,16,2.5v9.17s-11.88,5.83-34.38,6.88-38.13-14.17-38.13-14.17l20.63-3.75Z" style="fill:#ffece3"/><path d="M45.28,163.89c-8.33,9.72-10,32.78-10,32.78H163.61s1.94-20.28-9.17-31.11c-5.48-5.34-13.65-7.58-20.54-8.47,0,0-11.82,10.83-31.82,10.83-23.54,0-37.29-10.21-37.29-10.21A19.1,19.1,0,0,0,45.28,163.89Z" style="fill:#5bf499"/><circle cx="133.89" cy="102.78" r="9.17" style="fill:#ec7094"/><circle cx="66.11" cy="102.78" r="9.17" style="fill:#ec7094"/><path d="M142.22,68.06l8.06-.28L155,45s1.94-15.56-10-24.44-21.39-8.61-21.39-8.61S96.67-2.78,75.56,5,46.11,31.67,46.11,31.67L38.06,59.72s32.78,4.17,50.83-1.94S117.5,43.61,117.5,43.61l22.08,12.28Z" style="fill:#ce66ff"/><path d="M82.64,68.15a9.18,9.18,0,0,1,5.41,1.45,2.5,2.5,0,0,0,3.18-3.86,13.76,13.76,0,0,0-8.59-2.58c-5.35,0-8.26,2.32-8.58,2.59a2.48,2.48,0,0,0-.32,3.48,2.52,2.52,0,0,0,3.5.38A9.07,9.07,0,0,1,82.64,68.15Z" style="fill:#4c4497"/><path d="M111.95,69.59a10.83,10.83,0,0,1,10.81,0,2.5,2.5,0,0,0,3.18-3.86,13.76,13.76,0,0,0-8.59-2.58c-5.34,0-8.26,2.32-8.58,2.59a2.48,2.48,0,0,0-.32,3.48A2.52,2.52,0,0,0,111.95,69.59Z" style="fill:#4c4497"/><path d="M166.13,180.82a30.55,30.55,0,0,0-27.26-26.56l-15.19-1.57a5.42,5.42,0,0,1-4.74-4.44L117,141h.42a29.18,29.18,0,0,0,29.16-30.33l-.48-11.39a17.12,17.12,0,0,0,9.36-29.76l2.47-16.25c.21-.86,4.86-21.22-10.12-35.51C138.64,9,128.94,8.7,125.17,9,121.39,6.26,109-1.11,87.5.14c-34.6,2-43.82,31-44.62,33.78L33.46,59.68a3.33,3.33,0,0,0,3.13,4.48c.84,0,8.76,0,18.88-.47L55.41,65A17.18,17.18,0,0,0,54,99.26l-.49,11.4A29.18,29.18,0,0,0,82.62,141H83l-2,7.47a5.33,5.33,0,0,1-4.69,4.24l-15.2,1.57a30.55,30.55,0,0,0-27.26,26.56l-2,15.41A3.33,3.33,0,0,0,34.74,200l.43,0a3.33,3.33,0,0,0,3.3-2.9l2-15.41A23.91,23.91,0,0,1,61.81,160.9l3.8-.39C75,166.13,87.22,169.3,100,169.3c2.31,0,4.64-.1,6.94-.31a1.67,1.67,0,0,0,1.51-1.81,1.71,1.71,0,0,0-1.81-1.51c-2.19.2-4.43.3-6.64.3a66.9,66.9,0,0,1-28.49-6.07l5.5-.57A11.91,11.91,0,0,0,87.49,150l2.46-9h20.1l2.41,8.83A12,12,0,0,0,123,159.33l5.46.57a55.48,55.48,0,0,1-5.42,2.27,1.67,1.67,0,0,0,.56,3.24,1.65,1.65,0,0,0,.56-.09,56.43,56.43,0,0,0,10.24-4.8l3.8.39a23.91,23.91,0,0,1,21.33,20.78l2,15.41a3.33,3.33,0,0,0,3.3,2.9l.43,0a3.33,3.33,0,0,0,2.87-3.73Zm-20.35-88.2-.49-11.77,3.11,1.7a1.66,1.66,0,0,0,2.26-.66,1.66,1.66,0,0,0-.66-2.26L145.13,77l-.22-5.23a10.55,10.55,0,0,1,.87,20.88ZM41.37,57.44l7.9-21.65c.29-1.11,7.43-27.16,38.61-29,22.82-1.32,34,8.06,34.11,8.15a3.36,3.36,0,0,0,2.82.77c.11,0,9.41-1.67,18.35,6.86,12.16,11.61,8.27,29,8.18,29.41l-2.13,13.93a17,17,0,0,0-4.59-.86l-.39-9.29a3.33,3.33,0,0,0-2.49-3.09,60.13,60.13,0,0,1-11.39-4.38c-4.67-2.52-8.86-8.16-8.91-8.22a3.34,3.34,0,0,0-2.19-1.32,3.23,3.23,0,0,0-2.48.62c-.13.09-13,9.57-26.27,13.45C78.07,56.46,52.09,57.26,41.37,57.44Zm4.18,24.79a10.57,10.57,0,0,1,9.58-10.49L54.9,77,50,79.63a1.67,1.67,0,0,0,.8,3.13,1.64,1.64,0,0,0,.8-.21l3.14-1.71-.5,11.79A10.59,10.59,0,0,1,45.55,82.23Zm20.84,45.17a22.32,22.32,0,0,1-6.27-16.47l2-47.6c10.82-.67,22.64-1.89,30.22-4.1,10.88-3.17,21.12-9.53,25.77-12.67a35.54,35.54,0,0,0,9.05,7.61,62.29,62.29,0,0,0,10.48,4.26l2.19,52.49a22.51,22.51,0,0,1-22.5,23.39H82.62A22.33,22.33,0,0,1,66.39,127.41Z" style="fill:#4c4497"/><path d="M116.71,164c-.73.18-1.47.34-2.22.49a1.67,1.67,0,0,0,.66,3.27c.78-.16,1.56-.34,2.33-.52a1.67,1.67,0,0,0-.77-3.24Z" style="fill:#4c4497"/><circle cx="83.75" cy="82.12" r="6.64" style="fill:#4c4497"/><circle cx="116.25" cy="82.12" r="6.64" style="fill:#4c4497"/><path d="M110.56,107.61H89.44a1.67,1.67,0,1,0,0,3.33h21.11a1.67,1.67,0,1,0,0-3.33Z" style="fill:#4c4497"/></svg>