<svg id="图层_1" data-name="图层 1" xmlns="http://www.w3.org/2000/svg" viewBox="0 0 200 200"><title>人物插画01</title><path d="M57,52.25s25-8.05,45.83-8.05,41.66,9.44,41.66,9.44l14.72-20.83s-4.44-14.72-16.66-20.27-28.05-1.67-28.05-1.67S92.5-1.91,74.17,5.31s-30,28.05-30,28.05Z" style="fill:#6c9dff"/><path d="M56.12,53.91s24.16-9.72,46.66-9.72,41.66,9.44,41.66,9.44l.83,12.78s10.83-.83,13.33,9.72-6.94,16.94-13.33,18.05c0,0-7.22,42.21-44.44,42.21s-46.1-41.94-46.1-41.94S38.9,90.85,39.46,78.63,54.73,65.86,54.73,65.86Z" style="fill:#ffece3"/><path d="M91.67,112.31c1.57,2.09,3.54.21,7.92.21s7.5,2.08,8.75-.21,1.25-10.83-8.75-11.46S90.42,110.64,91.67,112.31Z" style="fill:#ec7094"/><path d="M86.67,136.05h26l5.83,18.12,16,2.5v9.17s-11.87,5.83-34.37,6.87-38.12-14.16-38.12-14.16l20.62-3.75Z" style="fill:#ffece3"/><circle cx="133.88" cy="102.8" r="9.17" style="fill:#ec7094"/><circle cx="66.12" cy="102.8" r="9.17" style="fill:#ec7094"/><path d="M45.29,163.9c-8.33,9.72-10,32.77-10,32.77H163.6s1.94-20.27-9.17-31.11c-5.48-5.34-13.65-7.57-20.54-8.47,0,0-11.82,10.83-31.82,10.83-23.54,0-37.29-10.21-37.29-10.21A19.1,19.1,0,0,0,45.29,163.9Z" style="fill:#fff385"/><path d="M89.61,69.35a3.33,3.33,0,1,0,2-6.36L79.82,59.3a3.33,3.33,0,1,0-2,6.36Z" style="fill:#4c4497"/><path d="M120.18,59.3,108.4,63a3.33,3.33,0,1,0,2,6.36l11.78-3.68a3.33,3.33,0,0,0-2-6.36Z" style="fill:#4c4497"/><path d="M100,99c-6,0-10.85,4.25-10.85,9.47,0,2.26.55,3.84,1.68,4.82a4.91,4.91,0,0,0,3.37,1.08,20.87,20.87,0,0,0,2.84-.27,21.92,21.92,0,0,1,5.86,0c2.26.31,4.6.63,6.27-.84,1.12-1,1.67-2.55,1.67-4.78C110.85,103.21,106,99,100,99Zm7,11.74c-.54.47-2.18.25-3.63,0a26.93,26.93,0,0,0-6.77,0c-1.43.2-3,.43-3.56,0a3.43,3.43,0,0,1-.53-2.3c0-3.38,3.37-6.14,7.51-6.14s7.51,2.76,7.51,6.14A3.36,3.36,0,0,1,107,110.7Z" style="fill:#4c4497"/><circle cx="83.89" cy="82.74" r="6.63" style="fill:#4c4497"/><circle cx="116.11" cy="82.74" r="6.63" style="fill:#4c4497"/><path d="M166,180.85a30.53,30.53,0,0,0-27.22-26.53l-15.17-1.57a5.33,5.33,0,0,1-4.68-4.23L116.57,137a47.59,47.59,0,0,0,30.72-39.83A17.14,17.14,0,0,0,147.52,63V54.64l14.2-18.09a3.33,3.33,0,0,0,.66-2.66c-.13-.69-3.28-17.06-19.59-24.36-13.27-5.93-24-3.25-28.33-1.68C109.12,4.17,91.68-5.64,69.18,4.37c-21.27,9.47-28.34,27.24-28.64,28a3.33,3.33,0,0,0,.29,3L52.48,53.68V63a17.14,17.14,0,0,0,.24,34.14A47.59,47.59,0,0,0,83.43,137L81,148.52a5.33,5.33,0,0,1-4.68,4.23l-15.18,1.57A30.53,30.53,0,0,0,34,180.85l-2,15.39A3.33,3.33,0,0,0,34.84,200l.43,0a3.33,3.33,0,0,0,3.3-2.9l2-15.39A23.88,23.88,0,0,1,61.86,161l3.79-.39c9.33,5.61,21.58,8.78,34.34,8.78,2.33,0,4.66-.1,6.92-.31a1.67,1.67,0,1,0-.3-3.32c-2.17.2-4.4.29-6.63.29a66.84,66.84,0,0,1-28.44-6.06l5.49-.57a12,12,0,0,0,10.52-9.51l2.28-11a46.62,46.62,0,0,0,20.33,0l2.28,11A12,12,0,0,0,123,159.38l5.45.56a55.6,55.6,0,0,1-5.4,2.26,1.67,1.67,0,0,0,1.11,3.14,56.18,56.18,0,0,0,10.22-4.79l3.79.39a23.88,23.88,0,0,1,21.3,20.75l2,15.39a3.33,3.33,0,0,0,3.3,2.9l.43,0a3.33,3.33,0,0,0,2.88-3.73ZM156.37,80.06a10.56,10.56,0,0,1-8.85,10.39v-12l3.48,1.9a1.67,1.67,0,1,0,1.59-2.93l-5.08-2.77v-5A10.56,10.56,0,0,1,156.37,80.06ZM71.89,10.46c22.71-10.11,39.28,3.19,40,3.75a3.36,3.36,0,0,0,3.64.41c.43-.21,10.7-5.21,24.57,1,10.71,4.79,14.39,14.47,15.42,18.08l-12,15.25-5.68-2a109.3,109.3,0,0,0-64-2.46L57.32,48.87,47.44,33.31A50.79,50.79,0,0,1,71.89,10.46ZM43.63,80.06a10.56,10.56,0,0,1,8.85-10.4v5L47.4,77.46A1.67,1.67,0,1,0,49,80.38l3.48-1.9v12A10.56,10.56,0,0,1,43.63,80.06ZM59.14,92.49V55.28L75.53,51a102.68,102.68,0,0,1,60.11,2.31l5.21,1.81v37.4a40.86,40.86,0,0,1-81.72,0Z" style="fill:#4c4497"/><path d="M116.68,164.08q-1.1.26-2.22.49a1.67,1.67,0,0,0,.67,3.27c.78-.16,1.56-.34,2.33-.52a1.67,1.67,0,1,0-.77-3.24Z" style="fill:#4c4497"/></svg>