<svg id="图层_1" data-name="图层 1" xmlns="http://www.w3.org/2000/svg" viewBox="0 0 200 200"><title>人物插画01</title><path d="M42.92,164.17H157.5L163.75,65S157.92,2.5,97.92,2.5,36.67,68.75,36.67,68.75Z" style="fill:#ff9fc2"/><path d="M86.67,136h26l5.83,18.13,16,2.5v9.17s-11.87,5.83-34.37,6.88-38.12-14.17-38.12-14.17l20.63-3.75Z" style="fill:#ffece3"/><path d="M45.28,163.89c-8.33,9.72-10,32.78-10,32.78H163.61s1.94-20.28-9.17-31.11c-5.48-5.34-13.65-7.58-20.54-8.47,0,0-11.82,10.83-31.82,10.83-23.54,0-37.29-10.21-37.29-10.21A19.1,19.1,0,0,0,45.28,163.89Z" style="fill:#fff385"/><path d="M57.08,53.33H145v45s-12.08,39.17-43.75,39.17c-40,0-44.58-41.67-44.58-41.67Z" style="fill:#ffece3"/><circle cx="133.89" cy="102.78" r="9.17" style="fill:#ec7094"/><circle cx="66.11" cy="102.78" r="9.17" style="fill:#ec7094"/><path d="M122.77,67,111,66a2.55,2.55,0,0,0-2.7,2.28,2.5,2.5,0,0,0,2.28,2.7l11.78,1h.21a2.5,2.5,0,0,0,.21-5Z" style="fill:#4c4497"/><path d="M77.65,71.95l11.78-1a2.5,2.5,0,0,0,2.28-2.7A2.53,2.53,0,0,0,89,66L77.23,67a2.5,2.5,0,0,0,.21,5Z" style="fill:#4c4497"/><circle cx="83.89" cy="86.05" r="6.63" style="fill:#4c4497"/><circle cx="116.11" cy="86.05" r="6.63" style="fill:#4c4497"/><path d="M166.05,180.84a30.64,30.64,0,0,0-5.62-14.14l5.66-96.61A66.22,66.22,0,0,0,51.83,20.78a65.59,65.59,0,0,0-17.94,49.3l5.64,96.68a30.64,30.64,0,0,0-5.59,14.09l-2,15.39A3.33,3.33,0,0,0,34.82,200l.43,0a3.33,3.33,0,0,0,3.3-2.9l2-15.39a23.89,23.89,0,0,1,21.3-20.76l3.8-.39c9.33,5.61,21.58,8.78,34.35,8.78,2.33,0,4.66-.1,6.93-.31a1.67,1.67,0,0,0,1.51-1.81,1.69,1.69,0,0,0-1.81-1.51c-2.17.2-4.4.29-6.63.29a66.84,66.84,0,0,1-28.45-6.06l5.49-.57a12,12,0,0,0,10.52-9.51l2.28-11a46.64,46.64,0,0,0,20.32,0l2.28,11A12,12,0,0,0,123,159.38l5.45.56a55.65,55.65,0,0,1-5.4,2.26,1.67,1.67,0,0,0,.56,3.24,1.65,1.65,0,0,0,.56-.09,56.26,56.26,0,0,0,10.23-4.79l3.79.39a23.89,23.89,0,0,1,21.31,20.76l2,15.39a3.33,3.33,0,0,0,3.3,2.9l.43,0a3.33,3.33,0,0,0,2.87-3.73ZM59.13,92.47V56h81.73V92.47a40.87,40.87,0,0,1-81.73,0Zm79.69,61.84-15.18-1.57a5.32,5.32,0,0,1-4.68-4.23L116.57,137a47.57,47.57,0,0,0,31-44.49V52.69a3.33,3.33,0,0,0-3.33-3.33H55.8a3.33,3.33,0,0,0-3.33,3.33V92.47a47.57,47.57,0,0,0,31,44.49L81,148.51a5.32,5.32,0,0,1-4.68,4.23l-15.18,1.57a30.59,30.59,0,0,0-15.33,6L40.54,69.69A59.55,59.55,0,0,1,143.31,25.36,59,59,0,0,1,159.44,69.7l-5.31,90.63A30.6,30.6,0,0,0,138.83,154.31Z" style="fill:#4c4497"/><path d="M116.69,164.07c-.73.18-1.47.34-2.21.49a1.67,1.67,0,0,0,.66,3.27c.78-.16,1.56-.34,2.32-.52a1.67,1.67,0,1,0-.77-3.24Z" style="fill:#4c4497"/><path d="M109.31,100.45a1.67,1.67,0,0,0-1.67,1.67,7.64,7.64,0,0,1-15.28,0,1.67,1.67,0,1,0-3.33,0,11,11,0,0,0,21.95,0A1.67,1.67,0,0,0,109.31,100.45Z" style="fill:#4c4497"/></svg>