<svg id="图层_1" data-name="图层 1" xmlns="http://www.w3.org/2000/svg" viewBox="0 0 200 200"><title>人物插画01</title><path d="M53.33,159.44h93.33s10-6.67,11.11-23.33,5-80,5-80S152.22,3.89,100,3.89,37.22,57.22,37.22,57.22l3.89,80A36,36,0,0,0,53.33,159.44Z" style="fill:#ce66ff"/><path d="M86.67,136h26l5.83,18.13,16,2.5v9.17s-11.88,5.83-34.38,6.88-38.12-14.17-38.12-14.17l20.62-3.75Z" style="fill:#ffece3"/><path d="M45.28,163.89c-8.33,9.72-10,32.78-10,32.78H163.61s1.94-20.28-9.17-31.11c-5.48-5.34-13.65-7.58-20.54-8.47,0,0-11.82,10.83-31.82,10.83-23.54,0-37.29-10.21-37.29-10.21A19.1,19.1,0,0,0,45.28,163.89Z" style="fill:#fff385"/><path d="M57.08,53.33h57.36l6.25-10.28,7.91,10.28H145v45s-12.08,39.17-43.75,39.17c-40,0-44.58-41.67-44.58-41.67Z" style="fill:#ffece3"/><circle cx="133.89" cy="102.78" r="9.17" style="fill:#ec7094"/><circle cx="66.11" cy="102.78" r="9.17" style="fill:#ec7094"/><path d="M122.77,67,111,66a2.53,2.53,0,0,0-2.7,2.28,2.49,2.49,0,0,0,2.28,2.7l11.78,1h.21a2.5,2.5,0,0,0,.21-5Z" style="fill:#4c4497"/><path d="M89,66,77.23,67a2.5,2.5,0,0,0,.21,5h.21l11.78-1A2.5,2.5,0,0,0,89,66Z" style="fill:#4c4497"/><circle cx="83.89" cy="86.05" r="6.63" style="fill:#4c4497"/><circle cx="116.11" cy="86.05" r="6.63" style="fill:#4c4497"/><path d="M166.05,180.84a30.52,30.52,0,0,0-14.46-22.24,39.33,39.33,0,0,0,10.76-24.75l3.74-63.77A66.22,66.22,0,0,0,51.83,20.78a65.59,65.59,0,0,0-17.94,49.3l3.71,63.55a39.44,39.44,0,0,0,10.9,24.92,30.52,30.52,0,0,0-14.56,22.3l-2,15.39A3.33,3.33,0,0,0,34.82,200l.43,0a3.33,3.33,0,0,0,3.3-2.9l2-15.39a23.89,23.89,0,0,1,21.3-20.76l3.8-.39c9.33,5.61,21.58,8.78,34.35,8.78,2.33,0,4.66-.1,6.93-.31a1.67,1.67,0,0,0,1.51-1.81,1.69,1.69,0,0,0-1.81-1.51c-2.17.2-4.4.29-6.63.29a66.84,66.84,0,0,1-28.45-6.06l5.49-.57a12,12,0,0,0,10.52-9.51l2.28-11a46.64,46.64,0,0,0,20.32,0l2.28,11A12,12,0,0,0,123,159.38l5.45.56a55.65,55.65,0,0,1-5.4,2.26,1.67,1.67,0,0,0,.56,3.24,1.65,1.65,0,0,0,.56-.09,56.26,56.26,0,0,0,10.23-4.79l3.79.39a23.89,23.89,0,0,1,21.31,20.76l2,15.39a3.33,3.33,0,0,0,3.3,2.9l.43,0a3.33,3.33,0,0,0,2.87-3.73ZM59.13,92.47V56h55.14a3.34,3.34,0,0,0,2.86-1.63l4-6.78,4.67,6.93A3.33,3.33,0,0,0,128.61,56h12.26V92.47a40.87,40.87,0,0,1-81.73,0Zm64.52,60.27a5.32,5.32,0,0,1-4.68-4.23L116.57,137a47.57,47.57,0,0,0,31-44.49V52.69a3.33,3.33,0,0,0-3.33-3.33H130.38l-6.62-9.83a3.26,3.26,0,0,0-2.86-1.47,3.34,3.34,0,0,0-2.77,1.63l-5.75,9.67H55.8a3.33,3.33,0,0,0-3.33,3.33V92.47a47.57,47.57,0,0,0,31,44.49L81,148.51a5.32,5.32,0,0,1-4.68,4.23l-15.18,1.57a30.91,30.91,0,0,0-6.13,1.3,32.77,32.77,0,0,1-10.78-22.37L40.54,69.68A59.55,59.55,0,0,1,143.31,25.36,59,59,0,0,1,159.44,69.7l-3.74,63.77a32.71,32.71,0,0,1-10.58,22.2,30.91,30.91,0,0,0-6.3-1.35Z" style="fill:#4c4497"/><path d="M116.69,164.07c-.73.18-1.47.34-2.21.49a1.67,1.67,0,0,0,.66,3.27c.78-.16,1.56-.34,2.32-.52a1.67,1.67,0,1,0-.77-3.24Z" style="fill:#4c4497"/><path d="M100.74,104.22a13.89,13.89,0,0,0-7.21.24,1.67,1.67,0,0,0-1,2.11,1.69,1.69,0,0,0,2.11,1.05,10.67,10.67,0,0,1,5.3-.18,7.19,7.19,0,0,1,4.51,3.82,1.67,1.67,0,0,0,1.54,1,1.72,1.72,0,0,0,.64-.13,1.67,1.67,0,0,0,.9-2.18A10.63,10.63,0,0,0,100.74,104.22Z" style="fill:#4c4497"/></svg>